<?xml version="1.0" encoding="utf-8"?>
<!-- Generator: Adobe Illustrator 25.2.0, SVG Export Plug-In . SVG Version: 6.00 Build 0)  -->
<svg version="1.1" id="Layer_1" xmlns="http://www.w3.org/2000/svg" xmlns:xlink="http://www.w3.org/1999/xlink" x="0px" y="0px"
	 width="612px" height="792px" viewBox="0 0 612 792" style="enable-background:new 0 0 612 792;" xml:space="preserve">
<style type="text/css">
	.st0{fill:none;stroke:#010101;stroke-width:1.1583;stroke-miterlimit:10;}
	.st1{fill:#010101;}
	.st2{fill:#FFFFFF;}
	.st3{fill:none;stroke:#FFFFFF;stroke-width:2;stroke-miterlimit:10;}
	.st4{fill:#FFFFFF;stroke:#4C2E78;stroke-width:2;stroke-miterlimit:10;}
	.st5{fill:#D2B887;stroke:#D2B887;stroke-width:0.75;stroke-miterlimit:10;}
	.st6{fill:#D2B887;}
	.st7{fill:none;stroke:#85754D;stroke-width:2;stroke-linecap:round;stroke-linejoin:round;stroke-miterlimit:10;}
</style>
<g>
	<rect x="2.6" y="6.1" class="st0" width="17.8" height="12.4"/>
	<polyline class="st0" points="2.6,6.1 11.5,15 20.4,6.1 	"/>
	<line class="st0" x1="8.9" y1="12.3" x2="2.6" y2="18.5"/>
	<line class="st0" x1="20.4" y1="18.5" x2="14.2" y2="12.3"/>
</g>
<path class="st1" d="M19.5,48.6c-0.6-0.4-1-0.7-1.5-1.1c-0.4-0.3-0.9-0.6-1.3-0.9c-1.1-0.7-2.2-0.7-2.8,0c-0.3,0.3-0.6,0.5-0.7,0.6
	c-0.4-0.3-1.5-1.1-2.6-2.2l0,0c-1.1-1.1-1.9-2.2-2.2-2.6c0.1-0.2,0.2-0.4,0.5-0.7c0.7-0.7,0.7-1.8,0-2.8c-0.3-0.5-0.6-0.9-0.9-1.3
	C7.6,37,7.2,36.6,6.8,36c-0.1-0.2-0.2-0.3-0.3-0.4C6.2,35.2,5.7,35,5.3,35c-0.5,0-0.8,0.2-0.9,0.3l-1.5,1.5
	c-0.9,0.9-1.3,1.8-0.8,3.4c0.5,1.5,3.1,5.6,5.3,7.8L7.5,48c2.2,2.2,6.3,4.8,7.8,5.4c0.5,0.2,1,0.3,1.3,0.3c0.7,0,1.3-0.3,2.1-1
	l1.4-1.4l0.1-0.1c0.2-0.4,0.5-1.3-0.3-2.1C19.8,48.8,19.6,48.7,19.5,48.6z M19.3,50.5L18,51.8c-0.5,0.5-0.8,0.7-1.3,0.7
	c-0.3,0-0.6-0.1-1-0.2c-1.2-0.4-5.2-2.9-7.4-5.1l-0.1-0.1C6,45,3.6,41,3.1,39.8c-0.4-1.1-0.2-1.5,0.5-2.3L5,36.2
	c0.1,0,0.1-0.1,0.3-0.1c0.2,0,0.3,0.1,0.5,0.2c0.1,0.1,0.1,0.2,0.2,0.2c0.4,0.6,0.8,1.1,1.1,1.5C7.4,38.6,7.7,39,8,39.4
	c0.2,0.3,0.6,1.1,0.1,1.5c-0.5,0.5-1,1.2-0.9,1.6c0.1,0.4,1.4,2.1,2.5,3.2l0,0c1.1,1.1,2.7,2.5,3.2,2.5c0.5,0.1,1.2-0.4,1.7-0.9
	c0.1-0.1,0.3-0.2,0.5-0.2c0.4,0,0.8,0.2,1,0.4c0.4,0.3,0.8,0.5,1.2,0.9l0,0c0.4,0.3,0.9,0.7,1.5,1.1c0.1,0.1,0.2,0.1,0.2,0.2
	C19.5,50,19.4,50.3,19.3,50.5z M17.7,38.2c1.2,1.2,2,2.7,2.4,4.4l0,0.1l1.1-0.1l0-0.1c-0.4-1.9-1.4-3.6-2.7-5
	C16.9,36,15,35,12.8,34.7l-0.1,0l-0.1,1.1l0.1,0C14.6,36,16.3,36.9,17.7,38.2z M16.2,39.7c0.9,0.9,1.5,2,1.8,3.2l0,0.1l1.1-0.1
	l0-0.1C18.7,41.3,18,40,17,38.9c-1.2-1.2-2.7-2-4.4-2.3l-0.1,0l-0.1,1.1l0.1,0C13.9,38,15.2,38.7,16.2,39.7z M14.8,41.1
	c0.6,0.6,1,1.2,1.2,2l0,0.1l1.1-0.1l0-0.1c-0.3-1-0.8-1.9-1.5-2.6c-0.9-0.9-2-1.4-3.2-1.7l-0.1,0l-0.1,1.1l0.1,0
	C13.2,39.9,14.1,40.4,14.8,41.1z"/>
<g>
	<path class="st2" d="M2.9,72.7c0.4,0,0.8-0.4,0.8-0.8v-4.4l6.9,6.9c0.2,0.2,0.4,0.2,0.6,0.2c0.2,0,0.4-0.1,0.6-0.2
		c0.3-0.3,0.3-0.8,0-1.1l-6.9-6.9h4.4c0.4,0,0.8-0.4,0.8-0.8s-0.4-0.8-0.8-0.8H2.9c-0.4,0-0.8,0.4-0.8,0.8v6.3
		C2.1,72.4,2.5,72.7,2.9,72.7z"/>
	<path class="st2" d="M2.9,86.9h6.3c0.4,0,0.8-0.4,0.8-0.8c0-0.4-0.4-0.8-0.8-0.8H4.8l6.9-6.9c0.3-0.3,0.3-0.8,0-1.1
		c-0.3-0.3-0.8-0.3-1.1,0l-6.9,6.9v-4.4c0-0.4-0.4-0.8-0.8-0.8c-0.4,0-0.8,0.4-0.8,0.8v6.3C2.1,86.5,2.5,86.9,2.9,86.9z"/>
	<path class="st2" d="M26.5,79c-0.4,0-0.8,0.4-0.8,0.8v4.4l-6.9-6.9c-0.3-0.3-0.8-0.3-1.1,0c-0.3,0.3-0.3,0.8,0,1.1l6.9,6.9h-4.4
		c-0.4,0-0.8,0.4-0.8,0.8c0,0.4,0.4,0.8,0.8,0.8h6.3c0.4,0,0.8-0.4,0.8-0.8v-6.3C27.3,79.4,27,79,26.5,79z"/>
	<path class="st2" d="M26.5,64.9h-6.3c-0.4,0-0.8,0.4-0.8,0.8c0,0.4,0.4,0.8,0.8,0.8h4.4l-6.9,6.9c-0.3,0.3-0.3,0.8,0,1.1
		c0.2,0.2,0.4,0.2,0.6,0.2s0.4-0.1,0.6-0.2l6.9-6.9v4.4c0,0.4,0.4,0.8,0.8,0.8c0.4,0,0.8-0.4,0.8-0.8v-6.3
		C27.3,65.2,27,64.9,26.5,64.9z"/>
</g>
<g>
	<path class="st2" d="M9.2,105.4h-2c-0.4,0-0.8,0.3-0.8,0.8c0,0.4,0.3,0.8,0.8,0.8h4.5v-4.5c0-0.4-0.3-0.8-0.8-0.8
		c-0.4,0-0.8,0.3-0.8,0.8v2L4,98.1c-0.3-0.3-0.8-0.3-1.1,0c-0.3,0.3-0.3,0.8,0,1.1L9.2,105.4z"/>
	<path class="st2" d="M20.4,111.5h2c0.4,0,0.8-0.3,0.8-0.8c0-0.4-0.3-0.8-0.8-0.8h-4.5v4.5c0,0.4,0.3,0.8,0.8,0.8
		c0.4,0,0.8-0.3,0.8-0.8v-2l6.3,6.3c0.1,0.1,0.3,0.2,0.5,0.2c0.2,0,0.4-0.1,0.5-0.2c0.3-0.3,0.3-0.8,0-1.1L20.4,111.5z"/>
	<path class="st2" d="M3.5,119.1c0.2,0,0.4-0.1,0.5-0.2l6.3-6.3v2c0,0.4,0.3,0.8,0.8,0.8c0.4,0,0.8-0.3,0.8-0.8V110H7.2
		c-0.4,0-0.8,0.3-0.8,0.8c0,0.4,0.3,0.8,0.8,0.8h2l-6.3,6.3c-0.3,0.3-0.3,0.8,0,1.1C3.1,119,3.3,119.1,3.5,119.1z"/>
	<path class="st2" d="M25.7,98.1l-6.3,6.3v-2c0-0.4-0.3-0.8-0.8-0.8c-0.4,0-0.8,0.3-0.8,0.8v4.5h4.5c0.4,0,0.8-0.3,0.8-0.8
		c0-0.4-0.3-0.8-0.8-0.8h-2l6.3-6.3c0.3-0.3,0.3-0.8,0-1.1C26.4,97.8,26,97.8,25.7,98.1z"/>
</g>
<path class="st3" d="M14.3,175.8c0.9-2.2,3-3.7,5.4-3.7c3.3,0,5.6,2.8,5.9,6.1c0,0,0.2,0.8-0.2,2.3c-0.5,2-1.6,3.8-3.1,5.2l-8,7.2
	l-7.9-7.2c-1.5-1.4-2.6-3.2-3.1-5.2c-0.4-1.5-0.2-2.3-0.2-2.3c0.3-3.3,2.6-6.1,5.9-6.1C11.4,172.1,13.4,173.6,14.3,175.8z"/>
<text transform="matrix(1 0 0 1 -3.6631 263.6455)" class="st2" style="font-family:'UniSansRegular'; font-size:11.9315px;"> </text>
<text transform="matrix(1 0 0 1 -3.6631 263.6455)" style="fill:none;stroke:#4C2E78;stroke-width:2;stroke-miterlimit:10; font-family:'UniSansRegular'; font-size:11.9315px;"> </text>
<path class="st4" d="M17.9,260.4l-3.5,5.2l4.7-1.4l-4.4,8.9l1.7-6.7l-4.6,1.3l3.3-6.9c-0.7,0.2-1.4,0.3-2.3,0.3
	c-2.4,0.1-3.9-0.9-5.6-0.9c-0.2,0-0.5,0-0.7,0.1c-2,0.4-3.4,2-3.5,3.7c-0.3,3.2,1.3,6.5,1.7,9.5c0.4,3,0.1,3.4,0.6,6.9
	c0.5,3.6,1.5,5.5,3,5.3c1.5-0.2,1.7-4.5,2.1-7.2c0.2-1.5,0.9-3.3,2.4-3.3c1.5,0,2.2,1.8,2.4,3.3c0.5,2.6,0.7,6.9,2.1,7.2
	c1.5,0.2,2.5-1.7,3-5.3c0.5-3.6,0.2-4,0.6-6.9c0.4-3,2-6.3,1.7-9.5c-0.1-1.7-1.3-3.4-3.1-3.6C18.6,260.1,18.3,260.2,17.9,260.4"/>
<path class="st5" d="M21.9,240.7l-2.2,12.8h-4.3l-6.6-14.6c0-0.1-0.1-0.2-0.2-0.2l-3.3-3.1l-1.4-6.2c-0.1-0.3-0.4-0.5-0.8-0.5
	c-0.4,0.1-0.7,0.4-0.7,0.8c0,0.1,0,0.1,0,0.1l1.5,6.3c0,0.1,0.1,0.3,0.2,0.4l3.4,3.2l6.3,13.8h-3.7l-2.2-12.8H5.7l2.2,13.9
	c0,0.6,0.5,1.1,1.1,1.1h11.8c0.6,0,1.1-0.5,1.1-1.1l2.2-13.9H21.9z"/>
<polygon class="st6" points="6.9,230.6 6.5,229.1 4.5,229.6 4.9,231.1 "/>
<polygon class="st6" points="5.4,232.9 7.3,232.4 6.9,230.9 5,231.5 "/>
<polygon class="st6" points="5.9,234.8 7.8,234.3 7.4,232.8 5.5,233.4 "/>
<polygon class="st7" points="15.2,197 19.2,205.3 28.3,206.6 21.8,213 23.3,222.1 15.2,217.8 7,222.1 8.6,213 2,206.6 11.1,205.3 
	"/>
<g>
	<path id="path1_1_" d="M10.4,140h5v1.2h-5V140z M6,140v8.8h13.9V140h-2.5v4.1v0c0,0.3-0.3,0.6-0.6,0.6H9.2c-0.3,0-0.6-0.3-0.6-0.6
		v0V140H6z M3.5,138.2c-0.7,0-1.3,0.5-1.3,1.2v9.9c0,0.6,0.6,1.2,1.3,1.2c0.7,0,1.3-0.5,1.3-1.2v-9.9C4.8,138.8,4.2,138.2,3.5,138.2
		z M10.4,137.1h5v1.2h-5V137.1z M9.8,135.3v4.1v4.1h6.3v-4.1v-4.1H9.8z M9.2,134.1h7.6c0.3,0,0.6,0.3,0.6,0.6v4.1h3.1
		c0.3,0,0.6,0.3,0.6,0.6v9.9c0,0.3-0.3,0.6-0.6,0.6H6l0,0.1c-0.3,1-1.3,1.6-2.4,1.6c-1.4,0-2.5-1-2.5-2.3v-9.9
		c0-1.3,1.1-2.3,2.5-2.3c1.1,0,2.1,0.7,2.4,1.6l0,0.1h2.6v-4.1C8.6,134.4,8.8,134.1,9.2,134.1z"/>
</g>
</svg>
