<?xml version="1.0" encoding="utf-8"?>
<!-- Generator: Adobe Illustrator 16.0.0, SVG Export Plug-In . SVG Version: 6.00 Build 0)  -->
<!DOCTYPE svg PUBLIC "-//W3C//DTD SVG 1.1//EN" "http://www.w3.org/Graphics/SVG/1.1/DTD/svg11.dtd">
<svg version="1.1" id="Layer_1" xmlns="http://www.w3.org/2000/svg" xmlns:xlink="http://www.w3.org/1999/xlink" x="0px" y="0px"
	 width="50px" height="50px" viewBox="0 0 50 50" enable-background="new 0 0 50 50" xml:space="preserve">
<path fill="none" d="M40.442,19.309c1.268-1.289,1.979-2.973,1.979-4.791c0-3.785-3.078-6.864-6.86-6.864
	c-2.232,0-4.27,1.094-5.558,2.896c-1.264-0.39-2.583-0.626-3.948-0.723V7.246h2.519V4.729H21.02v2.518h2.518v2.581
	c-1.365,0.097-2.687,0.333-3.947,0.723c-1.29-1.806-3.325-2.896-5.557-2.896c-3.782,0-6.861,3.079-6.861,6.864
	c0,1.819,0.711,3.505,1.979,4.791c-1.256,2.422-1.979,5.167-1.979,8.079c0,4.3,1.552,8.237,4.116,11.296l-3.234,4.315l2.014,1.51
	l3-4.004c3.121,2.791,7.221,4.508,11.728,4.508s8.608-1.717,11.729-4.508l3.001,4.004l2.014-1.51l-3.235-4.315
	c2.565-3.059,4.117-6.996,4.117-11.296C42.422,24.475,41.697,21.731,40.442,19.309z M35.562,10.172c2.396,0,4.342,1.95,4.342,4.346
	c0,0.938-0.303,1.822-0.844,2.561c-1.709-2.358-3.979-4.266-6.62-5.544C33.25,10.682,34.355,10.172,35.562,10.172z M9.69,14.518
	c0-2.395,1.949-4.346,4.343-4.346c1.203,0,2.311,0.51,3.122,1.36c-2.641,1.279-4.911,3.189-6.622,5.544
	C9.993,16.337,9.69,15.456,9.69,14.518z M24.797,42.496c-8.332,0-15.106-6.777-15.106-15.108s6.775-15.106,15.106-15.106
	c8.33,0,15.106,6.775,15.106,15.106S33.127,42.496,24.797,42.496z M26.056,27.388l10.07,7.554l5.036,2.519l-17.624-7.554V19.835
	h2.518V27.388z"/>
</svg>
